<svg width="34" height="38" viewBox="0 0 34 38" fill="none" xmlns="http://www.w3.org/2000/svg">
<path d="M0 32.75C0 33.1642 0.335786 33.5 0.75 33.5C1.16421 33.5 1.5 33.1642 1.5 32.75H0ZM1.92157 1.92157L1.39124 1.39124L1.39124 1.39124L1.92157 1.92157ZM32.3985 1.10147L31.8681 1.63175L31.8682 1.63186L32.3985 1.10147ZM32 28.178C32 28.5922 32.3358 28.928 32.75 28.928C33.1642 28.928 33.5 28.5922 33.5 28.178H32ZM4.75 28C4.33579 28 4 28.3358 4 28.75C4 29.1642 4.33579 29.5 4.75 29.5V28ZM32.75 29.5C33.1642 29.5 33.5 29.1642 33.5 28.75C33.5 28.3358 33.1642 28 32.75 28V29.5ZM4.75 36C4.33579 36 4 36.3358 4 36.75C4 37.1642 4.33579 37.5 4.75 37.5V36ZM32.75 37.5C33.1642 37.5 33.5 37.1642 33.5 36.75C33.5 36.3358 33.1642 36 32.75 36V37.5ZM1.5 32.75V4.75H0V32.75H1.5ZM1.5 4.75C1.5 3.88804 1.84241 3.0614 2.4519 2.4519L1.39124 1.39124C0.500449 2.28204 0 3.49022 0 4.75H1.5ZM2.4519 2.4519C3.0614 1.84241 3.88802 1.5 4.75 1.5V0C3.49018 0 2.28204 0.500451 1.39124 1.39124L2.4519 2.4519ZM4.75 1.5H31.55V0H4.75V1.5ZM31.55 1.5C31.6694 1.5 31.7838 1.54742 31.8681 1.63175L32.9289 0.571187C32.5632 0.205444 32.0672 0 31.55 0V1.5ZM31.8682 1.63186C31.9526 1.71621 32 1.83062 32 1.95H33.5C33.5 1.43286 33.2946 0.93683 32.9288 0.571081L31.8682 1.63186ZM32 1.95V28.178H33.5V1.95H32ZM4.75 29.5H32.75V28H4.75V29.5ZM4.75 37.5H32.75V36H4.75V37.5Z" fill="#757575"/>
<path d="M4.75 36.75C3.6891 36.75 2.67172 36.3286 1.92157 35.5784C1.17143 34.8283 0.75 33.8109 0.75 32.75C0.75 31.6891 1.17143 30.6717 1.92157 29.9216C2.67172 29.1714 3.6891 28.75 4.75 28.75" stroke="#757575" stroke-width="1.5" stroke-linecap="round" stroke-linejoin="round"/>
<path d="M10.75 8.75H22.75" stroke="#757575" stroke-width="1.5" stroke-linecap="round"/>
</svg>
